<?xml version="1.0" encoding="utf-8"?>
<!-- Generator: Adobe Illustrator 16.0.0, SVG Export Plug-In . SVG Version: 6.00 Build 0)  -->
<!DOCTYPE svg PUBLIC "-//W3C//DTD SVG 1.1//EN" "http://www.w3.org/Graphics/SVG/1.1/DTD/svg11.dtd">
<svg version="1.1" id="Layer_1" xmlns="http://www.w3.org/2000/svg" xmlns:xlink="http://www.w3.org/1999/xlink" x="0px" y="0px"
	 width="201.149px" height="36px" viewBox="0 0 201.149 36" enable-background="new 0 0 201.149 36" xml:space="preserve">
<g>
	<defs>
		<rect id="SVGID_1_" width="201.149" height="36"/>
	</defs>
	<clipPath id="SVGID_2_">
		<use xlink:href="#SVGID_1_"  overflow="visible"/>
	</clipPath>
	<g clip-path="url(#SVGID_2_)">
		<defs>
			<rect id="SVGID_3_" width="201.149" height="36"/>
		</defs>
		<clipPath id="SVGID_4_">
			<use xlink:href="#SVGID_3_"  overflow="visible"/>
		</clipPath>
		<g opacity="0.54" clip-path="url(#SVGID_4_)">
			<g>
				<defs>
					<rect id="SVGID_5_" x="117.697" y="2.462" width="83.452" height="25.345"/>
				</defs>
				<clipPath id="SVGID_6_">
					<use xlink:href="#SVGID_5_"  overflow="visible"/>
				</clipPath>
				<path clip-path="url(#SVGID_6_)" d="M117.696,15.134c0-7.217,5.455-12.673,12.605-12.673c3.659,0,6.743,1.457,8.911,3.965
					l-2.168,2.101c-1.695-2.101-3.966-3.084-6.743-3.084c-5.117,0-9.42,3.727-9.42,9.691c0,5.964,4.303,9.691,9.42,9.691
					c3.049,0,5.625-1.423,7.454-3.524l2.169,2.168c-2.136,2.542-5.558,4.339-9.623,4.339
					C123.151,27.808,117.696,22.352,117.696,15.134"/>
				<rect x="142.363" y="3.004" clip-path="url(#SVGID_6_)" width="3.117" height="24.261"/>
				<path clip-path="url(#SVGID_6_)" d="M164.895,18.963c0,5.049-3.557,8.845-8.539,8.845c-4.98,0-8.538-3.796-8.538-8.845
					s3.558-8.844,8.538-8.844C161.338,10.119,164.895,13.914,164.895,18.963 M161.777,18.963c0-3.795-2.643-5.997-5.422-5.997
					c-2.778,0-5.421,2.202-5.421,5.997s2.643,5.997,5.421,5.997C159.135,24.96,161.777,22.758,161.777,18.963"/>
				<path clip-path="url(#SVGID_6_)" d="M178.989,27.265v-2.304h-0.135c-0.915,1.524-2.981,2.846-5.252,2.846
					c-4.27,0-6.337-2.88-6.337-6.979V10.662h3.117v9.657c0,3.456,1.729,4.643,4.101,4.643c2.71,0,4.371-2.609,4.371-5.15v-9.149
					h3.117v16.603H178.989z"/>
				<path clip-path="url(#SVGID_6_)" d="M184.478,18.963c0-5.083,3.693-8.844,7.896-8.844c2.643,0,4.71,1.322,5.658,2.847h0.136
					l-0.136-2.305V3.004h3.117v24.261h-2.981V24.96h-0.136c-0.948,1.525-3.016,2.848-5.658,2.848
					C188.171,27.808,184.478,24.046,184.478,18.963 M198.167,18.963c0-3.795-2.507-5.997-5.286-5.997
					c-2.778,0-5.286,2.27-5.286,5.997c0,3.728,2.508,5.997,5.286,5.997C195.66,24.96,198.167,22.758,198.167,18.963"/>
			</g>
		</g>
		<g clip-path="url(#SVGID_4_)">
			<defs>
				<rect id="SVGID_7_" width="110.118" height="36"/>
			</defs>
			<clipPath id="SVGID_8_">
				<use xlink:href="#SVGID_7_"  overflow="visible"/>
			</clipPath>
			<path clip-path="url(#SVGID_8_)" fill="#4285F4" d="M0.191,13.915c0-7.658,6.438-13.893,14.096-13.893
				c4.235,0,7.251,1.66,9.521,3.829l-2.677,2.677c-1.626-1.525-3.829-2.711-6.845-2.711c-5.591,0-9.962,4.507-9.962,10.098
				c0,5.59,4.371,10.097,9.962,10.097c3.625,0,5.692-1.457,7.014-2.778c1.084-1.084,1.795-2.643,2.067-4.778h-9.081v-3.795h12.774
				c0.135,0.678,0.203,1.491,0.203,2.372c0,2.846-0.779,6.371-3.287,8.877c-2.439,2.541-5.557,3.896-9.69,3.896
				C6.629,27.807,0.191,21.572,0.191,13.915"/>
			<path clip-path="url(#SVGID_8_)" fill="#EA4335" d="M37.588,9.916c-4.947,0-8.979,3.761-8.979,8.945
				c0,5.15,4.032,8.945,8.979,8.945c4.947,0,8.979-3.795,8.979-8.945C46.567,13.677,42.535,9.916,37.588,9.916 M37.588,24.283
				c-2.711,0-5.049-2.236-5.049-5.422c0-3.219,2.338-5.421,5.049-5.421c2.71,0,5.048,2.203,5.048,5.421
				C42.637,22.047,40.299,24.283,37.588,24.283"/>
			<path clip-path="url(#SVGID_8_)" fill="#FBBC05" d="M57.176,9.916c-4.947,0-8.979,3.761-8.979,8.945
				c0,5.15,4.032,8.945,8.979,8.945c4.947,0,8.979-3.795,8.979-8.945C66.156,13.677,62.124,9.916,57.176,9.916 M57.176,24.283
				c-2.71,0-5.048-2.236-5.048-5.422c0-3.219,2.338-5.421,5.048-5.421c2.711,0,5.049,2.203,5.049,5.421
				C62.225,22.047,59.887,24.283,57.176,24.283"/>
			<path clip-path="url(#SVGID_8_)" fill="#4285F4" d="M81.22,10.458v1.458h-0.135c-0.881-1.051-2.575-2-4.71-2
				c-4.473,0-8.573,3.931-8.573,8.979c0,5.015,4.1,8.911,8.573,8.911c2.135,0,3.829-0.948,4.71-2.033h0.135v1.288
				c0,3.422-1.83,5.252-4.777,5.252c-2.406,0-3.897-1.729-4.507-3.186l-3.422,1.424c0.982,2.372,3.592,5.285,7.929,5.285
				c4.608,0,8.504-2.71,8.504-9.317V10.458H81.22z M76.713,24.283c-2.71,0-4.981-2.271-4.981-5.388c0-3.151,2.271-5.456,4.981-5.456
				c2.677,0,4.777,2.304,4.777,5.456C81.491,22.013,79.39,24.283,76.713,24.283"/>
			<rect x="87.658" y="0.971" clip-path="url(#SVGID_8_)" fill="#34A853" width="3.931" height="26.294"/>
			<path clip-path="url(#SVGID_8_)" fill="#EA4335" d="M102.363,24.283c-1.999,0-3.422-0.915-4.337-2.711l11.961-4.947l-0.406-1.017
				c-0.746-1.999-3.016-5.692-7.658-5.692c-4.608,0-8.437,3.625-8.437,8.945c0,5.015,3.795,8.945,8.877,8.945
				c4.1,0,6.472-2.507,7.454-3.964l-3.049-2.033C105.752,23.301,104.362,24.283,102.363,24.283 M102.059,13.372
				c1.559,0,2.88,0.779,3.32,1.897l-7.996,3.321C97.281,15.134,100.06,13.372,102.059,13.372"/>
		</g>
	</g>
</g>
</svg>
